<svg xmlns="http://www.w3.org/2000/svg" viewBox="0 0 120 120">
  <defs>
    <linearGradient id="d" x1="0" y1="0" x2="0" y2="1">
      <stop offset="0%" stop-color="#ffd1dc"/>
      <stop offset="55%" stop-color="#ffb6c1"/>
      <stop offset="100%" stop-color="#d6c8f5"/>
    </linearGradient>
  </defs>
  <path d="M60 10 C 78 40 96 58 96 80 A 36 36 0 1 1 24 80 C 24 58 42 40 60 10 Z" fill="url(#d)" stroke="#ff8fab" stroke-width="3"/>
  <path d="M46 52 l3 7 l7 3 l-7 3 l-3 7 l-3 -7 l-7 -3 l7 -3 Z" fill="#fff" opacity="0.85"/>
  <ellipse cx="47" cy="82" rx="5" ry="7" fill="#6b3a4e"/>
  <ellipse cx="73" cy="82" rx="5" ry="7" fill="#6b3a4e"/>
  <circle cx="49" cy="79" r="1.8" fill="#fff"/>
  <circle cx="75" cy="79" r="1.8" fill="#fff"/>
  <ellipse cx="37" cy="93" rx="6" ry="4" fill="#ff8fab" opacity="0.55"/>
  <ellipse cx="83" cy="93" rx="6" ry="4" fill="#ff8fab" opacity="0.55"/>
  <path d="M53 92 Q60 99 67 92" fill="none" stroke="#6b3a4e" stroke-width="2.6" stroke-linecap="round"/>
</svg>
